<svg width="248" height="64" viewBox="0 0 248 64" fill="none" xmlns="http://www.w3.org/2000/svg">
<rect width="248" height="64" rx="32" fill="#A6A6A6"/>
<path d="M104.352 36.0566V38H97.2129V36.0566H104.352ZM97.8965 23.7812V38H95.4453V23.7812H97.8965ZM116.139 30.5V31.2812C116.139 32.3555 115.999 33.319 115.72 34.1719C115.44 35.0247 115.039 35.7507 114.518 36.3496C114.004 36.9486 113.386 37.4076 112.663 37.7266C111.94 38.0391 111.139 38.1953 110.261 38.1953C109.388 38.1953 108.591 38.0391 107.868 37.7266C107.152 37.4076 106.53 36.9486 106.003 36.3496C105.475 35.7507 105.065 35.0247 104.772 34.1719C104.486 33.319 104.343 32.3555 104.343 31.2812V30.5C104.343 29.4258 104.486 28.4655 104.772 27.6191C105.059 26.7663 105.462 26.0404 105.983 25.4414C106.511 24.8359 107.132 24.377 107.848 24.0645C108.571 23.7454 109.369 23.5859 110.241 23.5859C111.12 23.5859 111.921 23.7454 112.643 24.0645C113.366 24.377 113.988 24.8359 114.509 25.4414C115.029 26.0404 115.43 26.7663 115.71 27.6191C115.996 28.4655 116.139 29.4258 116.139 30.5ZM113.688 31.2812V30.4805C113.688 29.6862 113.61 28.9863 113.454 28.3809C113.304 27.7689 113.08 27.2578 112.78 26.8477C112.487 26.431 112.126 26.1185 111.696 25.9102C111.266 25.6953 110.781 25.5879 110.241 25.5879C109.701 25.5879 109.219 25.6953 108.796 25.9102C108.373 26.1185 108.011 26.431 107.712 26.8477C107.419 27.2578 107.194 27.7689 107.038 28.3809C106.882 28.9863 106.804 29.6862 106.804 30.4805V31.2812C106.804 32.0755 106.882 32.7786 107.038 33.3906C107.194 34.0026 107.422 34.5202 107.721 34.9434C108.027 35.36 108.392 35.6758 108.815 35.8906C109.238 36.099 109.72 36.2031 110.261 36.2031C110.807 36.2031 111.292 36.099 111.716 35.8906C112.139 35.6758 112.497 35.36 112.79 34.9434C113.083 34.5202 113.304 34.0026 113.454 33.3906C113.61 32.7786 113.688 32.0755 113.688 31.2812ZM128.709 30.7344V36.1641C128.507 36.431 128.191 36.724 127.761 37.043C127.338 37.3555 126.775 37.6257 126.072 37.8535C125.369 38.0814 124.493 38.1953 123.445 38.1953C122.553 38.1953 121.736 38.0456 120.994 37.7461C120.252 37.4401 119.61 36.9941 119.07 36.4082C118.536 35.8223 118.123 35.1094 117.83 34.2695C117.537 33.4232 117.39 32.4596 117.39 31.3789V30.3926C117.39 29.3184 117.524 28.3613 117.791 27.5215C118.064 26.6751 118.455 25.959 118.962 25.373C119.47 24.7871 120.082 24.3444 120.798 24.0449C121.521 23.7389 122.338 23.5859 123.25 23.5859C124.415 23.5859 125.379 23.7812 126.14 24.1719C126.908 24.556 127.501 25.0898 127.918 25.7734C128.334 26.457 128.598 27.2383 128.709 28.1172H126.306C126.228 27.6224 126.075 27.1797 125.847 26.7891C125.626 26.3984 125.307 26.0924 124.89 25.8711C124.48 25.6432 123.946 25.5293 123.289 25.5293C122.722 25.5293 122.224 25.6367 121.795 25.8516C121.365 26.0664 121.007 26.3822 120.72 26.7988C120.44 27.2155 120.229 27.7233 120.086 28.3223C119.942 28.9212 119.871 29.6048 119.871 30.373V31.3789C119.871 32.1602 119.952 32.8535 120.115 33.459C120.284 34.0645 120.525 34.5755 120.837 34.9922C121.157 35.4089 121.544 35.7246 122 35.9395C122.455 36.1478 122.97 36.252 123.543 36.252C124.102 36.252 124.561 36.2064 124.92 36.1152C125.278 36.0176 125.561 35.9036 125.769 35.7734C125.984 35.6367 126.15 35.5065 126.267 35.3828V32.5605H123.308V30.7344H128.709ZM137.421 23.7812V38H134.97V23.7812H137.421ZM150.947 23.7812V38H148.496L142.119 27.8145V38H139.668V23.7812H142.119L148.516 33.9863V23.7812H150.947Z" fill="#F8F8F8"/>
</svg>
