
<svg width="833" height="79" viewBox="0 0 833 79" fill="none" xmlns="http://www.w3.org/2000/svg">
<rect x="0.5" y="0.5" width="832" height="78" rx="39" fill="#3F9AFF" stroke="#F1F4F8"/>
<path d="M97.28 37.456L96.464 39.12C94 38.72 92.224 37.648 91.312 36.144C90.4 37.648 88.64 38.736 86.176 39.12L85.376 37.456C88.656 37.008 90.24 35.232 90.24 33.504V33.072H92.4V33.504C92.4 35.312 93.952 37.024 97.28 37.456ZM88.416 42.864V45.44H96.512V47.12H86.304V42.864H88.416ZM92.384 40.288H98.016V41.968H84.688V40.288H90.272V38.224H92.384V40.288ZM108.431 36.432L107.535 38.032C105.887 37.696 104.735 36.912 104.079 35.888C103.439 37.024 102.255 37.888 100.511 38.272L99.5988 36.672C101.935 36.192 102.943 34.928 102.943 33.616V33.04H105.135V33.616C105.135 34.832 106.159 36.016 108.431 36.432ZM109.263 45.552V44.544H103.375V45.552H109.263ZM109.263 42.96V41.776H111.359V47.2H101.295V41.776H103.135V40.448C101.791 40.512 100.511 40.512 99.3588 40.512L99.1188 38.832C101.839 38.832 105.375 38.832 108.463 38.432L108.591 39.92C107.487 40.112 106.351 40.24 105.231 40.336V42.032H103.375V42.96H109.263ZM109.247 32.656H111.359V41.12H109.247V32.656ZM121.054 38.272V32.96H123.022V46.72H121.054V39.968H118.75C117.918 41.648 116.574 43.104 114.494 44.32L113.294 42.832C116.238 41.072 117.534 38.944 117.79 36.064H114.11V34.384H119.886C119.886 35.776 119.758 37.072 119.406 38.272H121.054ZM124.158 32.624H126.158V47.36H124.158V32.624Z" fill="white"/>
<path d="M132.054 46V34.256H133.542V46H132.054ZM136.422 46V34.256H139.782C142.406 34.256 144.166 35.152 144.166 37.712C144.166 40.192 142.422 41.344 139.846 41.344H137.91V46H136.422ZM137.91 40.144H139.654C141.718 40.144 142.694 39.392 142.694 37.712C142.694 36.016 141.654 35.472 139.59 35.472H137.91V40.144ZM153.549 35.392V37.216C153.549 39.504 155.181 42.048 157.261 43.024L156.509 44.08C154.909 43.28 153.565 41.6 152.909 39.68C152.253 41.776 150.861 43.6 149.245 44.432L148.477 43.392C150.525 42.368 152.253 39.648 152.253 37.216V35.392H148.973V34.304H156.733V35.392H153.549ZM162.125 38.624V39.728H159.757V47.184H158.445V32.848H159.757V38.624H162.125ZM169.612 46.16C171.852 46.16 173.18 45.6 173.18 44.592C173.18 43.584 171.852 43.024 169.612 43.024C167.34 43.024 166.012 43.584 166.012 44.592C166.012 45.6 167.34 46.16 169.612 46.16ZM169.612 42C172.652 42 174.508 42.928 174.508 44.592C174.508 46.256 172.652 47.184 169.612 47.184C166.54 47.184 164.684 46.256 164.684 44.592C164.684 42.928 166.54 42 169.612 42ZM170.268 39.92H176.108V40.976H163.116V39.92H168.956V38.256H164.748V33.488H174.492V34.544H166.06V37.2H174.588V38.256H170.268V39.92ZM190.191 34.144V35.152H181.727V34.144H185.295V32.688H186.607V34.144H190.191ZM183.775 38.144C183.775 38.992 184.623 39.52 185.951 39.52C187.279 39.52 188.143 38.992 188.143 38.144C188.143 37.28 187.279 36.768 185.951 36.768C184.623 36.768 183.775 37.28 183.775 38.144ZM189.391 38.144C189.391 39.6 188.031 40.496 185.951 40.496C183.887 40.496 182.527 39.6 182.527 38.144C182.527 36.688 183.887 35.792 185.951 35.792C188.031 35.792 189.391 36.688 189.391 38.144ZM185.023 44.64V46.016H193.343V47.024H183.743V43.68H191.519V42.432H183.695V41.456H192.815V44.64H185.023ZM192.815 36.24H194.943V37.328H192.815V40.72H191.503V32.784H192.815V36.24ZM204.398 38.656L204.542 39.728C202.574 40.128 200.862 40.224 197.838 40.224H196.718V33.936H203.054V34.992H198.014V39.152C200.862 39.152 202.51 39.056 204.398 38.656ZM202.654 46.112C204.766 46.112 206.078 45.472 206.078 44.416C206.078 43.36 204.766 42.72 202.654 42.72C200.526 42.72 199.214 43.36 199.214 44.416C199.214 45.472 200.526 46.112 202.654 46.112ZM202.654 41.664C205.55 41.664 207.374 42.688 207.374 44.416C207.374 46.144 205.55 47.168 202.654 47.168C199.742 47.168 197.918 46.144 197.918 44.416C197.918 42.688 199.742 41.664 202.654 41.664ZM207.23 36.56H209.342V37.648H207.23V41.376H205.902V32.832H207.23V36.56Z" fill="#E3F0FF"/>
<path d="M63.5 32.7324V47H61.1465V35.5254L57.6602 36.707V34.7637L63.2168 32.7324H63.5Z" fill="white"/>
<path d="M287.6 46V34.256H289.088V46H287.6ZM291.967 46V34.256H295.327C297.952 34.256 299.712 35.152 299.712 37.712C299.712 40.192 297.968 41.344 295.391 41.344H293.455V46H291.967ZM293.455 40.144H295.2C297.264 40.144 298.24 39.392 298.24 37.712C298.24 36.016 297.2 35.472 295.135 35.472H293.455V40.144ZM317.255 39.936V41.008H311.399V47.2H310.071V41.008H304.279V39.936H313.799C314.247 37.872 314.247 36.352 314.247 35.008V34.816H305.895V33.76H315.527V35.008C315.527 36.352 315.527 37.872 315.127 39.936H317.255ZM319.846 41.296L319.286 40.224C321.766 39.808 324.486 37.808 324.486 35.52V35.216H319.734V34.144H330.598V35.216H325.846V35.52C325.846 37.808 328.582 39.776 331.078 40.176L330.55 41.232C328.358 40.8 326.086 39.392 325.174 37.424C324.262 39.408 322.006 40.832 319.846 41.296ZM325.83 44.256H331.686V45.344H318.662V44.256H324.518V40.784H325.83V44.256ZM340.213 44.288H346.085V45.376H333.045V44.288H338.885V40.608H334.709V33.984H344.437V35.056H336.021V39.552H344.581V40.608H340.213V44.288ZM363.384 32.832V41.072H362.072V32.832H363.384ZM357.8 38.576V34.8H353.656V38.576H357.8ZM359.08 33.76V39.632H352.376V33.76H359.08ZM363.72 43.056H359.528C359.544 44.432 361.768 45.824 364.232 46.128L363.784 47.136C361.624 46.832 359.704 45.84 358.856 44.512C357.992 45.872 356.008 46.832 353.848 47.136L353.416 46.128C355.864 45.84 358.152 44.48 358.168 43.056H353.976V42.048H358.184V40.656H359.512V42.048H363.72V43.056ZM375.003 34.08V36.656C375.003 39.184 376.635 41.792 378.651 42.8L377.835 43.84C376.315 43.024 375.019 41.344 374.363 39.376C373.739 41.472 372.411 43.264 370.795 44.128L370.011 43.072C372.075 42.016 373.707 39.264 373.707 36.656V34.08H375.003ZM383.595 38.656V39.744H381.227V47.184H379.915V32.848H381.227V38.656H383.595ZM392.106 41.312H395.018V32.832H396.33V43.76H395.018V42.288H392.106V41.312ZM389.178 34.384C387.818 34.384 386.89 34.992 386.89 35.904C386.89 36.832 387.818 37.44 389.178 37.44C390.538 37.44 391.466 36.832 391.466 35.904C391.466 34.992 390.538 34.384 389.178 34.384ZM389.178 38.416C387.082 38.416 385.642 37.44 385.642 35.904C385.642 34.4 387.082 33.408 389.178 33.408C391.274 33.408 392.714 34.4 392.714 35.904C392.714 37.44 391.274 38.416 389.178 38.416ZM388.666 43.248V40.48C387.242 40.544 385.866 40.56 384.682 40.56L384.506 39.472C387.162 39.472 390.714 39.44 393.754 39.056L393.866 40C392.602 40.192 391.274 40.336 389.978 40.416V43.248H388.666ZM387.866 45.792H396.698V46.864H386.554V42.688H387.866V45.792ZM404.029 33.744H410.509C410.509 37.376 407.965 39.952 403.853 41.12L403.309 40.096C406.717 39.12 408.845 37.248 409.117 34.816H404.029V33.744ZM406.989 42.672V45.92H413.677V42.672H406.989ZM405.693 46.976V41.632H414.973V46.976H405.693ZM413.645 32.832H414.973V41.024H413.645V37.6H410.525V36.528H413.645V32.832ZM424.731 39.632L424.027 40.624C422.699 40.08 421.707 39.024 421.195 37.792C420.683 39.152 419.659 40.368 418.267 40.992L417.563 39.984C419.435 39.136 420.555 37.248 420.555 35.616V33.68H421.819V35.616C421.819 37.232 422.875 38.896 424.731 39.632ZM420.011 43.36V42.304H429.659V47.184H428.347V43.36H420.011ZM428.395 32.848H429.659V41.52H428.395V37.648H426.571V41.424H425.323V33.088H426.571V36.576H428.395V32.848ZM438.426 34.064C436.074 34.064 434.73 34.608 434.73 35.568C434.73 36.528 436.074 37.072 438.426 37.072C440.778 37.072 442.122 36.528 442.122 35.568C442.122 34.608 440.778 34.064 438.426 34.064ZM438.426 38.048C435.274 38.048 433.386 37.184 433.386 35.568C433.386 33.952 435.274 33.072 438.426 33.072C441.578 33.072 443.466 33.952 443.466 35.568C443.466 37.184 441.578 38.048 438.426 38.048ZM434.826 44.544V46H443.69V47.024H433.546V43.584H441.962V42.304H433.498V41.312H443.258V44.544H434.826ZM431.93 39.024H444.922V40.08H431.93V39.024ZM456.989 46.176C459.309 46.176 460.589 45.728 460.589 44.864C460.589 44.016 459.309 43.552 456.989 43.552C454.685 43.552 453.389 44.016 453.389 44.864C453.389 45.728 454.685 46.176 456.989 46.176ZM456.989 42.576C460.109 42.576 461.901 43.376 461.901 44.864C461.901 46.368 460.109 47.168 456.989 47.168C453.869 47.168 452.077 46.368 452.077 44.864C452.077 43.376 453.869 42.576 456.989 42.576ZM457.645 40.432H463.485V41.488H450.493V40.432H456.333V39.024H452.205V33.248H461.885V34.272H453.517V35.6H461.501V36.592H453.517V38H461.965V39.024H457.645V40.432ZM473.42 34.592V35.648H464.956V34.592H468.524V32.832H469.836V34.592H473.42ZM467.004 39.104C467.004 40.112 467.884 40.752 469.18 40.752C470.476 40.752 471.372 40.112 471.372 39.104C471.372 38.112 470.476 37.472 469.18 37.472C467.884 37.472 467.004 38.112 467.004 39.104ZM472.62 39.104C472.62 40.72 471.212 41.776 469.18 41.776C467.148 41.776 465.756 40.72 465.756 39.104C465.756 37.504 467.148 36.448 469.18 36.448C471.212 36.448 472.62 37.504 472.62 39.104ZM468.428 42.752V45.792H476.684V46.864H467.116V42.752H468.428ZM476.044 37.568H478.156V38.672H476.044V43.6H474.732V32.832H476.044V37.568ZM529.771 46V34.256H531.259V46H529.771ZM534.139 46V34.256H537.499C540.123 34.256 541.883 35.152 541.883 37.712C541.883 40.192 540.139 41.344 537.563 41.344H535.627V46H534.139ZM535.627 40.144H537.371C539.435 40.144 540.411 39.392 540.411 37.712C540.411 36.016 539.371 35.472 537.307 35.472H535.627V40.144ZM554.498 36.656H556.914V32.848H558.242V43.776H556.914V40.736H554.498V39.664H556.914V37.728H554.498V36.656ZM554.498 34.592V35.648H546.466V34.592H549.89V32.816H551.202V34.592H554.498ZM548.53 39.168C548.53 40.192 549.346 40.896 550.53 40.896C551.714 40.896 552.53 40.192 552.53 39.168C552.53 38.16 551.714 37.472 550.53 37.472C549.346 37.472 548.53 38.16 548.53 39.168ZM553.778 39.168C553.778 40.816 552.434 41.92 550.53 41.92C548.626 41.92 547.282 40.816 547.282 39.168C547.282 37.536 548.626 36.448 550.53 36.448C552.434 36.448 553.778 37.536 553.778 39.168ZM550.338 45.792H558.578V46.864H549.026V42.848H550.338V45.792ZM569.361 34.08V35.056H561.121V34.08H564.593V32.72H565.905V34.08H569.361ZM563.137 37.696C563.137 38.4 563.953 38.832 565.249 38.832C566.529 38.832 567.345 38.4 567.345 37.696C567.345 36.992 566.529 36.544 565.249 36.544C563.953 36.544 563.137 36.992 563.137 37.696ZM569.793 40.432L569.873 41.344C566.833 41.888 563.441 41.92 560.913 41.92L560.769 40.896C561.905 40.896 563.217 40.88 564.593 40.832V39.696C562.929 39.552 561.889 38.816 561.889 37.696C561.889 36.416 563.217 35.648 565.249 35.648C567.265 35.648 568.593 36.416 568.593 37.696C568.593 38.816 567.553 39.536 565.905 39.696V40.784C567.217 40.704 568.561 40.608 569.793 40.432ZM567.361 46.192C569.521 46.192 570.737 45.744 570.737 44.96C570.737 44.16 569.521 43.728 567.361 43.728C565.201 43.728 563.985 44.16 563.985 44.96C563.985 45.744 565.201 46.192 567.361 46.192ZM567.361 42.752C570.321 42.752 572.065 43.536 572.065 44.96C572.065 46.384 570.321 47.168 567.361 47.168C564.385 47.168 562.657 46.384 562.657 44.96C562.657 43.536 564.385 42.752 567.361 42.752ZM571.953 37.168H574.049V38.256H571.953V42.576H570.641V32.848H571.953V37.168ZM587.924 34.144V35.136H579.684V34.144H583.156V32.736H584.468V34.144H587.924ZM581.7 37.792C581.7 38.544 582.516 39.024 583.812 39.024C585.076 39.024 585.908 38.544 585.908 37.792C585.908 37.04 585.076 36.576 583.812 36.576C582.516 36.576 581.7 37.04 581.7 37.792ZM588.356 40.544L588.452 41.488C585.38 42.016 581.988 42.032 579.476 42.048L579.332 40.992C580.468 40.992 581.78 40.992 583.156 40.944V39.904C581.492 39.744 580.452 38.976 580.452 37.792C580.452 36.48 581.78 35.664 583.812 35.664C585.812 35.664 587.156 36.48 587.156 37.792C587.156 38.96 586.116 39.728 584.468 39.904V40.896C585.78 40.832 587.108 40.736 588.356 40.544ZM581.076 44.224V43.184H590.516V47.184H589.204V44.224H581.076ZM592.612 37.184V38.272H590.516V42.464H589.204V32.848H590.516V37.184H592.612ZM605.571 32.848V43.328H604.259V32.848H605.571ZM595.411 37.36C595.411 38.784 596.467 39.776 597.859 39.776C599.283 39.776 600.339 38.784 600.339 37.36C600.339 35.968 599.283 34.976 597.859 34.976C596.467 34.976 595.411 35.968 595.411 37.36ZM601.619 37.36C601.619 39.44 600.003 40.912 597.859 40.912C595.731 40.912 594.131 39.44 594.131 37.36C594.131 35.296 595.731 33.84 597.859 33.84C600.003 33.84 601.619 35.296 601.619 37.36ZM597.651 45.792H606.003V46.864H596.339V42.256H597.651V45.792Z" fill="#E3F0FF"/>
<path d="M494.997 37.456L494.181 39.12C491.717 38.72 489.941 37.648 489.029 36.144C488.117 37.648 486.357 38.736 483.893 39.12L483.093 37.456C486.373 37.008 487.957 35.232 487.957 33.504V33.072H490.117V33.504C490.117 35.312 491.669 37.024 494.997 37.456ZM486.133 42.864V45.44H494.229V47.12H484.021V42.864H486.133ZM490.101 40.288H495.733V41.968H482.405V40.288H487.989V38.224H490.101V40.288ZM506.164 37.472L505.22 39.12C503.476 38.72 502.308 37.84 501.636 36.672C500.98 37.952 499.748 38.944 497.972 39.408L496.996 37.76C499.476 37.168 500.532 35.6 500.532 34V33.248H502.708V34C502.708 35.536 503.716 36.944 506.164 37.472ZM506.196 39.824L506.324 41.344C505.14 41.568 503.908 41.728 502.708 41.824V46.928H500.596V41.952C499.332 42.016 498.148 42.016 497.108 42.016L496.852 40.304C499.476 40.304 503.076 40.272 506.196 39.824ZM507.028 32.64H509.14V47.344H507.028V32.64ZM517.858 34.592C516.018 34.592 514.85 35.056 514.85 35.968C514.85 36.88 516.018 37.344 517.858 37.344C519.73 37.344 520.882 36.88 520.882 35.968C520.882 35.056 519.73 34.592 517.858 34.592ZM517.858 39.024C514.69 39.024 512.562 37.84 512.562 35.968C512.562 34.112 514.69 32.912 517.858 32.912C521.042 32.912 523.154 34.112 523.154 35.968C523.154 37.84 521.042 39.024 517.858 39.024ZM514.898 42.704V45.44H523.09V47.12H512.754V42.704H514.898ZM511.202 39.792H524.546V41.472H519.074V44H516.914V41.472H511.202V39.792Z" fill="white"/>
<path d="M268.605 45.125V47H259.074V45.3887L263.703 40.3398C264.211 39.7669 264.611 39.2721 264.904 38.8555C265.197 38.4388 265.402 38.0645 265.52 37.7324C265.643 37.3939 265.705 37.0651 265.705 36.7461C265.705 36.2969 265.62 35.903 265.451 35.5645C265.288 35.2194 265.048 34.9492 264.729 34.7539C264.41 34.5521 264.022 34.4512 263.566 34.4512C263.039 34.4512 262.596 34.5651 262.238 34.793C261.88 35.0208 261.61 35.3366 261.428 35.7402C261.245 36.1374 261.154 36.5931 261.154 37.1074H258.801C258.801 36.2806 258.99 35.5254 259.367 34.8418C259.745 34.1517 260.292 33.6048 261.008 33.2012C261.724 32.791 262.587 32.5859 263.596 32.5859C264.546 32.5859 265.354 32.7454 266.018 33.0645C266.682 33.3835 267.186 33.8359 267.531 34.4219C267.883 35.0078 268.059 35.7012 268.059 36.502C268.059 36.9447 267.987 37.3841 267.844 37.8203C267.701 38.2565 267.495 38.6927 267.229 39.1289C266.968 39.5586 266.659 39.9915 266.301 40.4277C265.943 40.8574 265.549 41.2936 265.119 41.7363L262.043 45.125H268.605Z" fill="white"/>
<path d="M697.28 37.456L696.464 39.12C694 38.72 692.224 37.648 691.312 36.144C690.4 37.648 688.64 38.736 686.176 39.12L685.376 37.456C688.656 37.008 690.24 35.232 690.24 33.504V33.072H692.4V33.504C692.4 35.312 693.952 37.024 697.28 37.456ZM688.416 42.864V45.44H696.512V47.12H686.304V42.864H688.416ZM692.384 40.288H698.016V41.968H684.688V40.288H690.272V38.224H692.384V40.288ZM708.447 37.472L707.503 39.12C705.759 38.72 704.591 37.84 703.919 36.672C703.263 37.952 702.031 38.944 700.255 39.408L699.279 37.76C701.759 37.168 702.815 35.6 702.815 34V33.248H704.991V34C704.991 35.536 705.999 36.944 708.447 37.472ZM708.479 39.824L708.607 41.344C707.423 41.568 706.191 41.728 704.991 41.824V46.928H702.879V41.952C701.615 42.016 700.431 42.016 699.391 42.016L699.135 40.304C701.759 40.304 705.359 40.272 708.479 39.824ZM709.311 32.64H711.423V47.344H709.311V32.64ZM720.142 34.592C718.302 34.592 717.134 35.056 717.134 35.968C717.134 36.88 718.302 37.344 720.142 37.344C722.014 37.344 723.166 36.88 723.166 35.968C723.166 35.056 722.014 34.592 720.142 34.592ZM720.142 39.024C716.974 39.024 714.846 37.84 714.846 35.968C714.846 34.112 716.974 32.912 720.142 32.912C723.326 32.912 725.438 34.112 725.438 35.968C725.438 37.84 723.326 39.024 720.142 39.024ZM717.182 42.704V45.44H725.374V47.12H715.038V42.704H717.182ZM713.486 39.792H726.83V41.472H721.358V44H719.198V41.472H713.486V39.792Z" fill="white"/>
<path d="M732.054 46V34.256H733.542V46H732.054ZM736.422 46V34.256H739.782C742.406 34.256 744.166 35.152 744.166 37.712C744.166 40.192 742.422 41.344 739.846 41.344H737.91V46H736.422ZM737.91 40.144H739.654C741.718 40.144 742.694 39.392 742.694 37.712C742.694 36.016 741.654 35.472 739.59 35.472H737.91V40.144ZM756.253 38.96L754.957 38.816C755.293 37.168 755.341 35.936 755.341 35.024H749.485V33.952H756.621V34.704C756.621 35.648 756.621 37.072 756.253 38.96ZM757.613 39.824L757.709 40.784C754.733 41.28 751.293 41.36 748.749 41.36L748.621 40.288C749.533 40.288 750.573 40.272 751.661 40.256V37.152H752.957V40.208C754.525 40.144 756.157 40.016 757.613 39.824ZM752.125 42.656V45.792H760.349V46.864H750.813V42.656H752.125ZM759.885 37.504H761.933V38.592H759.885V43.648H758.573V32.832H759.885V37.504ZM765.26 39.28V42.64C767.612 42.64 769.724 42.528 772.236 42.128L772.364 43.2C769.772 43.632 767.596 43.728 765.132 43.728H763.948V38.224H769.228V35.232H763.9V34.16H770.556V39.28H765.26ZM773.58 32.816H774.892V47.2H773.58V32.816Z" fill="#E3F0FF"/>
<path d="M659.838 38.8262H661.244C661.791 38.8262 662.243 38.7318 662.602 38.543C662.966 38.3542 663.236 38.0938 663.412 37.7617C663.588 37.4297 663.676 37.0488 663.676 36.6191C663.676 36.1699 663.594 35.7858 663.432 35.4668C663.275 35.1413 663.035 34.8906 662.709 34.7148C662.39 34.5391 661.983 34.4512 661.488 34.4512C661.072 34.4512 660.694 34.5358 660.355 34.7051C660.023 34.8678 659.76 35.1022 659.564 35.4082C659.369 35.7077 659.271 36.0658 659.271 36.4824H656.908C656.908 35.7272 657.107 35.0566 657.504 34.4707C657.901 33.8848 658.441 33.4258 659.125 33.0938C659.815 32.7552 660.59 32.5859 661.449 32.5859C662.367 32.5859 663.168 32.7389 663.852 33.0449C664.542 33.3444 665.079 33.7936 665.463 34.3926C665.847 34.9915 666.039 35.7337 666.039 36.6191C666.039 37.0228 665.945 37.4329 665.756 37.8496C665.567 38.2663 665.287 38.6471 664.916 38.9922C664.545 39.3307 664.083 39.6074 663.529 39.8223C662.976 40.0306 662.335 40.1348 661.605 40.1348H659.838V38.8262ZM659.838 40.6621V39.373H661.605C662.439 39.373 663.148 39.4707 663.734 39.666C664.327 39.8613 664.809 40.1315 665.18 40.4766C665.551 40.8151 665.821 41.2025 665.99 41.6387C666.166 42.0749 666.254 42.5371 666.254 43.0254C666.254 43.6895 666.133 44.2819 665.893 44.8027C665.658 45.3171 665.323 45.7533 664.887 46.1113C664.451 46.4694 663.939 46.7396 663.354 46.9219C662.774 47.1042 662.143 47.1953 661.459 47.1953C660.847 47.1953 660.261 47.1107 659.701 46.9414C659.141 46.7721 658.64 46.5215 658.197 46.1895C657.755 45.8509 657.403 45.431 657.143 44.9297C656.889 44.4219 656.762 43.8359 656.762 43.1719H659.115C659.115 43.5951 659.213 43.9694 659.408 44.2949C659.61 44.6139 659.89 44.8646 660.248 45.0469C660.613 45.2292 661.029 45.3203 661.498 45.3203C661.993 45.3203 662.419 45.2324 662.777 45.0566C663.135 44.8809 663.409 44.6204 663.598 44.2754C663.793 43.9303 663.891 43.5137 663.891 43.0254C663.891 42.472 663.783 42.0228 663.568 41.6777C663.354 41.3327 663.048 41.0788 662.65 40.916C662.253 40.7467 661.785 40.6621 661.244 40.6621H659.838Z" fill="white"/>
</svg>
