<svg width="32" height="32" viewBox="0 0 32 32" fill="none" xmlns="http://www.w3.org/2000/svg">
<rect width="32" height="32" fill="#D5D5D5"/>
<g id="Design system">
<rect width="1920" height="1080" transform="translate(-1136 -712)" fill="white"/>
<g id="&#226;&#152;&#133;icon_monitor_hospital">
<path id="Vector" d="M5.33341 26.6663C4.60008 26.6663 3.97253 26.4055 3.45075 25.8837C2.92897 25.3619 2.66764 24.7339 2.66675 23.9997V17.333H9.83342L12.1334 21.933C12.2445 22.1775 12.4112 22.361 12.6334 22.4837C12.8556 22.6063 13.089 22.6672 13.3334 22.6663C13.5779 22.6663 13.8112 22.6055 14.0334 22.4837C14.2556 22.3619 14.4223 22.1783 14.5334 21.933L18.6667 13.6663L20.1334 16.5997C20.2445 16.8441 20.4112 17.0277 20.6334 17.1503C20.8556 17.273 21.089 17.3339 21.3334 17.333H29.3334V23.9997C29.3334 24.733 29.0725 25.361 28.5507 25.8837C28.029 26.4063 27.401 26.6672 26.6667 26.6663H5.33341ZM2.66675 14.6663V7.99967C2.66675 7.26634 2.92808 6.63879 3.45075 6.11701C3.97341 5.59523 4.60097 5.3339 5.33341 5.33301H26.6667C27.4001 5.33301 28.0281 5.59434 28.5507 6.11701C29.0734 6.63967 29.3343 7.26723 29.3334 7.99967V14.6663H22.1667L19.8667 10.0663C19.7556 9.8219 19.589 9.6499 19.3667 9.55034C19.1445 9.45079 18.9112 9.40056 18.6667 9.39967C18.4223 9.39967 18.189 9.4499 17.9667 9.55034C17.7445 9.65079 17.5779 9.82279 17.4667 10.0663L13.3334 18.333L11.8667 15.3997C11.7556 15.1552 11.589 14.9717 11.3667 14.849C11.1445 14.7263 10.9112 14.6655 10.6667 14.6663H2.66675Z" fill="#222222"/>
</g>
</g>
</svg>
