<svg width="26" height="24" viewBox="0 0 26 24" fill="none" xmlns="http://www.w3.org/2000/svg">
<path d="M23 0H3C1.34315 0 0 1.34315 0 3V17C0 18.6569 1.34315 20 3 20H23C24.6569 20 26 18.6569 26 17V3C26 1.34315 24.6569 0 23 0Z" fill="#222222"/>
<path d="M17 22H9C8.73478 22 8.48043 22.1054 8.29289 22.2929C8.10536 22.4804 8 22.7348 8 23C8 23.2652 8.10536 23.5196 8.29289 23.7071C8.48043 23.8946 8.73478 24 9 24H17C17.2652 24 17.5196 23.8946 17.7071 23.7071C17.8946 23.5196 18 23.2652 18 23C18 22.7348 17.8946 22.4804 17.7071 22.2929C17.5196 22.1054 17.2652 22 17 22Z" fill="#222222"/>
</svg>
