<svg width="89" height="39" viewBox="0 0 89 39" fill="none" xmlns="http://www.w3.org/2000/svg">
<rect width="89" height="39" rx="8" fill="#3F9AFF"/>
<path d="M39.376 14.144V15.136H31.136V14.144H34.608V12.736H35.92V14.144H39.376ZM33.152 17.792C33.152 18.544 33.968 19.024 35.264 19.024C36.528 19.024 37.36 18.544 37.36 17.792C37.36 17.04 36.528 16.576 35.264 16.576C33.968 16.576 33.152 17.04 33.152 17.792ZM39.808 20.544L39.904 21.488C36.832 22.016 33.44 22.032 30.928 22.048L30.784 20.992C31.92 20.992 33.232 20.992 34.608 20.944V19.904C32.944 19.744 31.904 18.976 31.904 17.792C31.904 16.48 33.232 15.664 35.264 15.664C37.264 15.664 38.608 16.48 38.608 17.792C38.608 18.96 37.568 19.728 35.92 19.904V20.896C37.232 20.832 38.56 20.736 39.808 20.544ZM32.528 24.224V23.184H41.968V27.184H40.656V24.224H32.528ZM44.064 17.184V18.272H41.968V22.464H40.656V12.848H41.968V17.184H44.064ZM56.7028 12.848V23.328H55.3907V12.848H56.7028ZM46.5427 17.36C46.5427 18.784 47.5987 19.776 48.9907 19.776C50.4148 19.776 51.4707 18.784 51.4707 17.36C51.4707 15.968 50.4148 14.976 48.9907 14.976C47.5987 14.976 46.5427 15.968 46.5427 17.36ZM52.7508 17.36C52.7508 19.44 51.1347 20.912 48.9907 20.912C46.8627 20.912 45.2627 19.44 45.2627 17.36C45.2627 15.296 46.8627 13.84 48.9907 13.84C51.1347 13.84 52.7508 15.296 52.7508 17.36ZM48.7827 25.792H57.1348V26.864H47.4707V22.256H48.7827V25.792Z" fill="white"/>
</svg>
