<svg width="133" height="45" viewBox="0 0 133 45" fill="none" xmlns="http://www.w3.org/2000/svg">
<rect width="133" height="45" rx="8" fill="#6A6A6A"/>
<path d="M64.64 21.14L63.84 22.8C60.84 22.32 58.38 20.8 57.2 18.72C56.04 20.82 53.54 22.32 50.54 22.8L49.74 21.14C53.42 20.62 56.1 18.4 56.1 16.02V15.06H58.28V16.02C58.28 18.36 61 20.62 64.64 21.14ZM65.34 24.5V26.18H58.16V32.56H56.1V26.18H49.02V24.5H65.34ZM76.7184 19.02H79.9184V14.48H81.9784V25.24H79.9184V20.7H76.7184V19.02ZM77.7584 23.04L76.7384 24.66C74.7384 23.96 73.2984 22.54 72.5384 20.8C71.7384 22.78 70.2184 24.38 68.0784 25.14L67.0184 23.5C69.8184 22.5 71.4384 20.1 71.4384 17.62V17.36H67.6184V15.7H77.2784V17.36H73.5184V17.6C73.5184 19.86 75.0584 22.1 77.7584 23.04ZM75.9784 30.96C78.5184 30.96 79.9984 30.32 79.9984 29.14C79.9984 27.96 78.5184 27.32 75.9784 27.32C73.3984 27.32 71.9384 27.96 71.9384 29.14C71.9384 30.32 73.3984 30.96 75.9784 30.96ZM75.9784 25.72C79.7384 25.72 82.0584 27 82.0584 29.14C82.0584 31.3 79.7384 32.56 75.9784 32.56C72.1984 32.56 69.8784 31.3 69.8784 29.14C69.8784 27 72.1984 25.72 75.9784 25.72Z" fill="white"/>
</svg>
