<svg width="170" height="53" viewBox="0 0 170 53" fill="none" xmlns="http://www.w3.org/2000/svg">
<rect x="0.5" y="0.5" width="169" height="52" rx="26" fill="#EAF0FF" stroke="#3F9AFF"/>
<path d="M44.82 21.8V30.62C45.78 30.6 46.78 30.56 47.76 30.52V21.8H44.82ZM49.36 21.8V30.42C50.3 30.36 51.22 30.28 52.1 30.16L52.22 31.38C48.46 31.98 44.2 32.04 41.04 32.04L40.84 30.66C41.58 30.66 42.38 30.66 43.22 30.64V21.8H41.3V20.48H51.28V21.8H49.36ZM57.82 25.72V27.08H54.86V36.48H53.22V18.56H54.86V25.72H57.82ZM72.7784 18.54V27.74H71.1384V18.54H72.7784ZM60.0584 23.18C60.0584 24.72 61.3584 25.82 63.0984 25.82C64.8584 25.82 66.1384 24.72 66.1384 23.18C66.1384 21.62 64.8584 20.52 63.0984 20.52C61.3584 20.52 60.0584 21.62 60.0584 23.18ZM67.7384 23.18C67.7384 25.54 65.7784 27.14 63.0984 27.14C60.4184 27.14 58.4784 25.54 58.4784 23.18C58.4784 20.8 60.4184 19.18 63.0984 19.18C65.7784 19.18 67.7384 20.8 67.7384 23.18ZM62.8184 34.94H73.3784V36.24H61.1984V31.74H71.1584V29.92H61.1584V28.62H72.7784V32.96H62.8184V34.94ZM91.2695 34.92V32.6H83.0495V34.92H91.2695ZM91.2695 31.32V29.04H92.9095V36.24H81.4295V29.04H83.0495V31.32H91.2695ZM83.0295 26.32C84.8095 26.32 86.0895 25.16 86.0895 23.52C86.0895 21.88 84.8095 20.74 83.0295 20.74C81.2495 20.74 79.9695 21.88 79.9695 23.52C79.9695 25.16 81.2495 26.32 83.0295 26.32ZM91.2495 18.56H92.9095V28.18H91.2495V24.16H87.6095C87.2895 26.28 85.4895 27.68 83.0295 27.68C80.3495 27.68 78.4095 26 78.4095 23.52C78.4095 21.06 80.3495 19.38 83.0295 19.38C85.4495 19.38 87.2495 20.74 87.5895 22.82H91.2495V18.56ZM104.068 32.92H111.408V34.26H95.108V32.92H102.408V29.54H97.148V24H107.788V21.2H97.108V19.86H109.388V25.32H98.768V28.22H109.808V29.54H104.068V32.92ZM126.506 27.14V28.48H114.186V20.18H126.326V21.54H115.806V27.14H126.506ZM112.106 32.7H128.386V34.06H112.106V32.7Z" fill="#3F9AFF"/>
</svg>
