<svg width="133" height="45" viewBox="0 0 133 45" fill="none" xmlns="http://www.w3.org/2000/svg">
<rect width="133" height="45" rx="8" fill="#3F9AFF"/>
<path d="M55.5 17.96V19.42C55.5 22.48 57.3 25.8 60.1 27.1L58.9 28.72C56.84 27.72 55.3 25.68 54.5 23.26C53.7 25.82 52.14 28.02 50.04 29.1L48.82 27.46C51.6 26.12 53.42 22.68 53.42 19.42V17.96H49.52V16.28H59.42V17.96H55.5ZM61.94 14.46H64V32.56H61.94V22.62H58.38V20.92H61.94V14.46ZM77.6184 22.98L76.6184 24.58C74.5984 23.94 73.1584 22.64 72.3784 20.96C71.5784 22.88 70.0584 24.42 67.8984 25.16L66.8584 23.54C69.6984 22.56 71.2784 20.24 71.2784 17.78V17.42H67.4384V15.76H77.1384V17.42H73.3584V17.76C73.3584 20 74.8584 22.1 77.6184 22.98ZM75.2984 30.92C77.8184 30.92 79.2784 30.28 79.2784 29.12C79.2784 27.94 77.8184 27.32 75.2984 27.32C72.7784 27.32 71.3184 27.94 71.3184 29.12C71.3184 30.28 72.7784 30.92 75.2984 30.92ZM75.2984 25.7C79.0184 25.7 81.3184 26.96 81.3184 29.12C81.3184 31.26 79.0184 32.54 75.2984 32.54C71.5784 32.54 69.2784 31.26 69.2784 29.12C69.2784 26.96 71.5784 25.7 75.2984 25.7ZM81.1184 18.88H83.6784V20.58H81.1184V25.28H79.0584V14.48H81.1184V18.88Z" fill="white"/>
</svg>
