<svg width="66" height="36" viewBox="0 0 66 36" fill="none" xmlns="http://www.w3.org/2000/svg">
<rect x="0.5" y="0.5" width="65" height="35" rx="3.5" fill="#E7EEFF" stroke="#1B5391"/>
<path d="M29.898 12.492H31.046V19.226H29.898V12.492ZM22.954 19.842H24.088V21.382H29.912V19.842H31.046V24.868H22.954V19.842ZM24.088 22.278V23.944H29.912V22.278H24.088ZM24.298 13.08C26.202 13.08 27.588 14.256 27.588 15.964C27.588 17.7 26.202 18.862 24.298 18.862C22.408 18.862 21.036 17.7 21.036 15.964C21.036 14.256 22.408 13.08 24.298 13.08ZM24.298 14.032C23.052 14.032 22.156 14.83 22.156 15.964C22.156 17.112 23.052 17.91 24.298 17.91C25.572 17.91 26.468 17.112 26.468 15.964C26.468 14.83 25.572 14.032 24.298 14.032ZM39.6969 18.4L39.8089 19.324C38.2689 19.59 36.9949 19.632 34.4889 19.632H33.5929V15.908H37.8489V14.172H33.5509V13.234H38.9689V16.79H34.7129V18.694C37.0369 18.694 38.2409 18.638 39.6969 18.4ZM34.9929 21.816V20.878H43.4069V25.05H42.2449V21.816H34.9929ZM42.2449 12.492H43.4069V20.206H42.2449V17.882H39.7949V16.958H42.2449V15.278H39.7949V14.34H42.2449V12.492Z" fill="#1B5391"/>
</svg>
