<svg width="133" height="45" viewBox="0 0 133 45" fill="none" xmlns="http://www.w3.org/2000/svg">
<rect width="133" height="45" rx="8" fill="#F14242"/>
<path d="M41.7 16V17.56H31.04V16H35.34V14.3H37.4V16H41.7ZM33.96 21.16C33.96 22.08 34.9 22.62 36.36 22.62C37.84 22.62 38.78 22.08 38.78 21.16C38.78 20.22 37.84 19.68 36.36 19.68C34.9 19.68 33.96 20.22 33.96 21.16ZM40.74 21.16C40.74 22.98 39.02 24.1 36.36 24.1C33.72 24.1 31.98 22.98 31.98 21.16C31.98 19.32 33.72 18.18 36.36 18.18C39.02 18.18 40.74 19.32 40.74 21.16ZM35.52 29.42V30.84H45.72V32.38H33.5V27.98H43.08V26.68H33.46V25.16H45.12V29.42H35.52ZM45.12 18.56H47.68V20.26H45.12V24.34H43.06V14.44H45.12V18.56ZM59.3784 21.6L59.5984 23.28C57.2384 23.76 55.0984 23.88 51.1784 23.88H49.7184V15.78H57.7584V17.46H51.7784V22.2C55.2384 22.18 57.1784 22.08 59.3784 21.6ZM57.2984 30.88C59.7984 30.88 61.2784 30.2 61.2784 28.98C61.2784 27.76 59.7984 27.1 57.2984 27.1C54.7984 27.1 53.3184 27.76 53.3184 28.98C53.3184 30.2 54.7984 30.88 57.2984 30.88ZM57.2984 25.44C60.9984 25.44 63.3184 26.78 63.3184 28.98C63.3184 31.2 60.9984 32.56 57.2984 32.56C53.5984 32.56 51.2784 31.2 51.2784 28.98C51.2784 26.78 53.5984 25.44 57.2984 25.44ZM63.1584 18.98H65.6784V20.68H63.1584V25.08H61.0584V14.48H63.1584V18.98ZM71.4169 26.78C72.6369 26.78 73.4969 25.8 73.4969 24.3C73.4969 22.8 72.6369 21.8 71.4169 21.8C70.1969 21.8 69.3369 22.8 69.3369 24.3C69.3369 25.8 70.1969 26.78 71.4169 26.78ZM71.4169 20.1C73.6969 20.1 75.3369 21.8 75.3369 24.3C75.3369 26.78 73.6969 28.5 71.4169 28.5C69.1369 28.5 67.4969 26.78 67.4969 24.3C67.4969 21.8 69.1369 20.1 71.4169 20.1ZM72.4369 15V17.42H75.8169V19.08H66.9769V17.42H70.3969V15H72.4369ZM80.4369 14.48H82.3969V32.54H80.4369V23.66H78.5169V31.7H76.5969V14.86H78.5169V21.96H80.4369V14.48ZM90.4953 18.14V19.44C90.4953 22.52 91.6553 25.64 94.1753 27.1L92.9753 28.6C91.2753 27.6 90.1553 25.82 89.5153 23.72C88.8753 26 87.7153 27.94 85.9753 29.04L84.7353 27.52C87.2953 25.92 88.4953 22.66 88.4953 19.44V18.14H85.3153V16.44H93.4753V18.14H90.4953ZM94.8153 20.82V14.82H96.7553V31.66H94.8153V22.5H92.1553V20.82H94.8153ZM98.4553 14.46H100.415V32.52H98.4553V14.46Z" fill="white"/>
</svg>
